<svg xmlns="http://www.w3.org/2000/svg" xmlns:xlink="http://www.w3.org/1999/xlink" width="196" zoomAndPan="magnify" viewBox="0 0 147 147.000002" height="196" preserveAspectRatio="xMidYMid meet" version="1.0"><defs><clipPath id="a137d78b62"><path d="M 42 23.070312 L 136.730469 23.070312 L 136.730469 122 L 42 122 Z M 42 23.070312 " clip-rule="nonzero"/></clipPath><clipPath id="55986c2479"><path d="M 10.089844 51 L 68 51 L 68 122.890625 L 10.089844 122.890625 Z M 10.089844 51 " clip-rule="nonzero"/></clipPath></defs><g clip-path="url(#a137d78b62)"><path fill="#ff9900" d="M 126.273438 60.75 C 121.832031 56.304688 116.410156 53.1875 110.484375 51.59375 C 110.144531 49.917969 109.6875 48.273438 109.113281 46.671875 C 105.945312 37.726562 99.480469 30.570312 90.917969 26.519531 C 86.09375 24.238281 80.960938 23.082031 75.664062 23.082031 C 71.601562 23.082031 67.617188 23.769531 63.816406 25.128906 L 63.3125 25.308594 L 63.25 25.371094 C 54.597656 28.589844 47.664062 34.972656 43.710938 43.347656 C 43.15625 44.449219 42.714844 45.507812 42.304688 46.539062 C 43.414062 46.449219 44.527344 46.390625 45.648438 46.390625 C 49.03125 46.390625 52.464844 46.839844 55.882812 47.707031 C 58.574219 42.828125 62.882812 39.144531 68.121094 37.277344 C 70.554688 36.40625 73.101562 35.960938 75.695312 35.960938 C 79.058594 35.960938 82.320312 36.699219 85.390625 38.152344 C 90.726562 40.675781 94.78125 45.070312 96.867188 50.554688 C 78.359375 52.15625 70.097656 64.289062 58.925781 80.691406 L 58.761719 80.933594 C 56.320312 84.511719 53.558594 88.570312 50.367188 92.917969 L 48.113281 95.992188 L 52.0625 96.675781 C 53.027344 96.839844 54.226562 97.050781 55.625 97.050781 C 60.816406 97.050781 65.359375 94.070312 69.503906 87.9375 C 79.945312 72.542969 86.246094 63.25 101.175781 63.25 C 107.277344 63.25 112.953125 65.597656 117.164062 69.867188 C 121.429688 74.132812 123.777344 79.820312 123.777344 85.875 C 123.777344 91.929688 121.429688 97.613281 117.164062 101.878906 C 112.964844 106.085938 107.136719 108.496094 101.175781 108.496094 C 98.796875 108.496094 96.515625 108.136719 94.328125 107.40625 C 92.136719 106.746094 90.03125 105.710938 88.234375 104.410156 L 86.289062 103.003906 L 78.929688 113.601562 L 80.867188 114.949219 C 83.941406 117.085938 87.207031 118.695312 90.570312 119.742188 C 94.078125 120.828125 97.644531 121.375 101.175781 121.375 C 110.636719 121.375 119.550781 117.671875 126.273438 110.941406 C 132.960938 104.246094 136.644531 95.34375 136.644531 85.875 C 136.644531 76.363281 132.960938 67.441406 126.273438 60.75 Z M 126.273438 60.75 " fill-opacity="1" fill-rule="nonzero"/></g><g clip-path="url(#55986c2479)"><path fill="#0099ff" d="M 66.011719 58.328125 C 62.984375 56.226562 59.726562 54.617188 56.296875 53.53125 C 52.734375 52.449219 49.152344 51.898438 45.648438 51.898438 C 36.25 51.898438 27.359375 55.582031 20.605469 62.277344 C 13.882812 69.011719 10.179688 77.929688 10.179688 87.402344 C 10.179688 96.871094 13.882812 105.792969 20.605469 112.523438 C 27.359375 119.21875 36.25 122.902344 45.648438 122.902344 C 49.152344 122.902344 52.734375 122.355469 56.296875 121.273438 C 59.726562 120.1875 62.984375 118.578125 66.011719 116.476562 L 67.960938 115.125 L 60.523438 104.539062 L 58.589844 105.9375 C 56.761719 107.257812 54.699219 108.289062 52.460938 109.003906 C 50.324219 109.679688 48.03125 110.023438 45.648438 110.023438 C 39.722656 110.023438 33.914062 107.613281 29.714844 103.40625 C 25.414062 99.105469 23.046875 93.421875 23.046875 87.402344 C 23.046875 81.382812 25.414062 75.699219 29.714844 71.394531 C 33.914062 67.191406 39.722656 64.777344 45.648438 64.777344 C 48.03125 64.777344 50.324219 65.125 52.460938 65.800781 C 54.699219 66.515625 56.761719 67.546875 58.589844 68.863281 L 59.800781 69.742188 C 62.421875 66.066406 65.042969 62.648438 67.835938 59.59375 Z M 66.011719 58.328125 " fill-opacity="1" fill-rule="nonzero"/></g></svg>